# xmcd
#
# Track frame offsets:
#	150
#	12586
#	23021
#	35027
#	46093
#	62069
#	75355
#	89231
#	106606
#	118616
#	129594
#	142762
#	156089
#	168879
#	178423
#	188870
#	207226
#	223276
#	238025
#	255178
#	269565
#	287510
#	305353
#	319981
#	339346
#
# Disc length: 4717 seconds
#
# Revision: 1
# Processed by: cddbd v1.5.2PL0 Copyright (c) Steve Scherf et al.
# Submitted via: audiograbber 1.83.01
#
DISCID=62126b19
DTITLE=Crystal Gayle - Greatest Hits
DYEAR=2007
DGENRE=Country
TTITLE0=I've Cried (The Blue Right Out Of My Eyes)
TTITLE1=Wrong Road Again
TTITLE2=Beyond You
TTITLE3=Somebody Loves You
TTITLE4=I'll Get Over You
TTITLE5=You Never Miss A Real Good Thing ('Till He Says Goodbye)
TTITLE6=I'll Do It All Over Again
TTITLE7=River Road
TTITLE8=Don't It Make My Brown Eyes Blue
TTITLE9=Ready For The Times To Get Better
TTITLE10=Talking In Your Sleep
TTITLE11=Why Have You Left The One You Left For Me
TTITLE12=When I Dream
TTITLE13=Your Kisses Will
TTITLE14=Your Old Cold Shoulder
TTITLE15=Half The Way
TTITLE16=It's Like We Never Said Goodbye
TTITLE17=If You Ever Change Your Mind
TTITLE18=Too Many Lovers
TTITLE19=You Never Gave Up On Me
TTITLE20=You And I
TTITLE21=Till I Gain Control Again
TTITLE22=Sound Of Goodbye
TTITLE23=Cry
TTITLE24=He Is Beautiful To Me
EXTD=
EXTT0=
EXTT1=
EXTT2=
EXTT3=
EXTT4=
EXTT5=
EXTT6=
EXTT7=
EXTT8=
EXTT9=
EXTT10=
EXTT11=
EXTT12=
EXTT13=
EXTT14=
EXTT15=
EXTT16=
EXTT17=
EXTT18=
EXTT19=
EXTT20=
EXTT21=
EXTT22=
EXTT23=
EXTT24=
PLAYORDER=
